<svg xmlns="http://www.w3.org/2000/svg" viewBox="0 0 128.58 90"><defs><style>.cls-1{fill:#98d8e2;}.cls-2{fill:#97d8e3;}.cls-3{fill:#231f20;}</style></defs><title>logo</title><g id="Layer_2" data-name="Layer 2"><g id="Layer_1-2" data-name="Layer 1"><path d="M75,67.5h0A7.5,7.5,0,0,1,67.5,75h0A7.5,7.5,0,0,0,60,82.5h0A7.5,7.5,0,0,0,67.5,90h15A7.5,7.5,0,0,0,90,82.5v-15A7.5,7.5,0,0,0,82.5,60h0A7.5,7.5,0,0,0,75,67.5Z"/><path class="cls-1" d="M67.5,15h0A7.5,7.5,0,0,1,75,22.5h0A7.5,7.5,0,0,0,82.5,30h0A7.5,7.5,0,0,0,90,22.5V7.5A7.5,7.5,0,0,0,82.5,0h-15A7.5,7.5,0,0,0,60,7.5h0A7.5,7.5,0,0,0,67.5,15Z"/><path d="M22.5,15h0A7.5,7.5,0,0,0,15,22.5h0A7.5,7.5,0,0,1,7.5,30h0A7.5,7.5,0,0,1,0,22.5V7.5A7.5,7.5,0,0,1,7.5,0h15A7.5,7.5,0,0,1,30,7.5h0A7.5,7.5,0,0,1,22.5,15Z"/><path d="M22.5,75h0A7.5,7.5,0,0,1,15,67.5h0A7.5,7.5,0,0,0,7.5,60h0A7.5,7.5,0,0,0,0,67.5v15A7.5,7.5,0,0,0,7.5,90h15A7.5,7.5,0,0,0,30,82.5h0A7.5,7.5,0,0,0,22.5,75Z"/><rect x="42.37" y="42.29" width="5.4" height="5.4" rx="2.05"/><rect class="cls-2" x="51.37" y="42.29" width="5.4" height="5.4" rx="2.05"/><rect class="cls-2" x="60.37" y="42.29" width="5.4" height="5.4" rx="2.05"/><rect x="33.37" y="42.29" width="5.4" height="5.4" rx="2.05"/><rect x="24.37" y="42.29" width="5.4" height="5.4" rx="2.05"/><path class="cls-3" d="M87.78,50.66a1,1,0,0,1-.24.61.79.79,0,0,1-.65.3,1,1,0,0,1-.38-.08.8.8,0,0,1-.32-.25l-4-5-1.92,1.89v2.57a.86.86,0,0,1-.27.63.89.89,0,0,1-.65.26.88.88,0,0,1-.63-.26.86.86,0,0,1-.27-.63V36.12a.8.8,0,0,1,.27-.6.9.9,0,0,1,.68-.27.82.82,0,0,1,.6.27.8.8,0,0,1,.27.6V46l6-6.09a.78.78,0,0,1,1.14,0,.85.85,0,0,1,.25.6.74.74,0,0,1-.21.53l-3.94,4,4.11,5.06A.88.88,0,0,1,87.78,50.66Z"/><path d="M101.27,45.21a1,1,0,0,1-.29.7,1,1,0,0,1-.7.29H91.91a4.56,4.56,0,0,0,.36,1.55A3.94,3.94,0,0,0,93.12,49a4.06,4.06,0,0,0,1.28.86,4.13,4.13,0,0,0,1.68.33,5,5,0,0,0,1.63-.27,4.82,4.82,0,0,0,1.49-.81.71.71,0,0,1,.41-.13.73.73,0,0,1,.48.21.75.75,0,0,1,0,1.12,6.16,6.16,0,0,1-1.9,1,7.39,7.39,0,0,1-2.26.33,6.29,6.29,0,0,1-2.37-.44A5.44,5.44,0,0,1,91.68,50a5.76,5.76,0,0,1-1.23-1.92A6.76,6.76,0,0,1,90,45.6a6.51,6.51,0,0,1,.43-2.37,6.2,6.2,0,0,1,1.19-1.93,5.77,5.77,0,0,1,1.8-1.3,6,6,0,0,1,4.26-.15,4.92,4.92,0,0,1,1.57.92,5.48,5.48,0,0,1,1.15,1.42A6.19,6.19,0,0,1,101.1,44c0,.18.07.37.11.58A3.34,3.34,0,0,1,101.27,45.21Zm-1.76-.33a4.32,4.32,0,0,0-.22-1.34,4,4,0,0,0-.7-1.24,3.57,3.57,0,0,0-1.19-.93A3.77,3.77,0,0,0,95.7,41a3.47,3.47,0,0,0-1.63.36,3.71,3.71,0,0,0-1.17.92,4.1,4.1,0,0,0-.72,1.23,4.16,4.16,0,0,0-.27,1.36Z"/><path d="M114.78,45.21a1,1,0,0,1-1,1h-8.37a4.56,4.56,0,0,0,.36,1.55,4.1,4.1,0,0,0,.85,1.27,4.06,4.06,0,0,0,1.28.86,4.13,4.13,0,0,0,1.68.33,5.08,5.08,0,0,0,1.64-.27,4.89,4.89,0,0,0,1.48-.81.71.71,0,0,1,.41-.13.73.73,0,0,1,.48.21.75.75,0,0,1,0,1.12,6.16,6.16,0,0,1-1.9,1,7.37,7.37,0,0,1-2.25.33,6.3,6.3,0,0,1-2.38-.44A5.44,5.44,0,0,1,105.19,50,5.58,5.58,0,0,1,104,48.08a6.56,6.56,0,0,1-.45-2.48,6.73,6.73,0,0,1,.43-2.37,6.2,6.2,0,0,1,1.19-1.93,6,6,0,0,1,1.8-1.3,6,6,0,0,1,4.26-.15,4.92,4.92,0,0,1,1.57.92,5.73,5.73,0,0,1,1.16,1.42,6.18,6.18,0,0,1,.68,1.82c0,.18.07.37.11.58A3.34,3.34,0,0,1,114.78,45.21ZM113,44.88a4.34,4.34,0,0,0-.23-1.34,3.82,3.82,0,0,0-.7-1.24,3.57,3.57,0,0,0-1.19-.93,3.74,3.74,0,0,0-1.7-.36,3.5,3.5,0,0,0-1.63.36,3.82,3.82,0,0,0-1.17.92,4.1,4.1,0,0,0-.72,1.23,4.44,4.44,0,0,0-.27,1.36Z"/><path class="cls-3" d="M128.58,45.6a8.32,8.32,0,0,1-.37,2.54,5.57,5.57,0,0,1-1.06,1.92,4.48,4.48,0,0,1-1.62,1.21,5.15,5.15,0,0,1-2.1.42,4.67,4.67,0,0,1-2.2-.52,4.83,4.83,0,0,1-1.7-1.52V55.1a.8.8,0,0,1-.27.6.88.88,0,0,1-.65.26.86.86,0,0,1-.64-.26.79.79,0,0,1-.26-.6V40.53a.82.82,0,0,1,.26-.6,1,1,0,0,1,.68-.26.87.87,0,0,1,.61.26.83.83,0,0,1,.27.6v1a4.76,4.76,0,0,1,1.65-1.45,4.58,4.58,0,0,1,2.25-.56,5.15,5.15,0,0,1,2.1.42,4.57,4.57,0,0,1,1.62,1.2,5.39,5.39,0,0,1,1.06,1.9A8.39,8.39,0,0,1,128.58,45.6Zm-1.9,0a6,6,0,0,0-.25-1.78,4.29,4.29,0,0,0-.73-1.41,3.34,3.34,0,0,0-1.17-.94,3.57,3.57,0,0,0-1.56-.34,4,4,0,0,0-2,.54A3.93,3.93,0,0,0,119.53,43v5.23A3.87,3.87,0,0,0,121,49.53a3.94,3.94,0,0,0,2,.55,3.57,3.57,0,0,0,1.56-.33,3.34,3.34,0,0,0,1.17-.94,4.24,4.24,0,0,0,.73-1.42A6.1,6.1,0,0,0,126.68,45.6Z"/></g></g></svg>